<mxfile host="app.diagrams.net" modified="2022-11-24T06:15:22.580Z" agent="5.0 (Windows NT 10.0; Win64; x64) AppleWebKit/537.36 (KHTML, like Gecko) Chrome/100.0.4896.60 Safari/537.36" etag="OnQ15yhye9AKmrLmExXE" version="20.5.3" type="github">
  <diagram id="kgpKYQtTHZ0yAKxKKP6v" name="Page-1">
    <mxGraphModel dx="1422" dy="762" grid="1" gridSize="10" guides="1" tooltips="1" connect="1" arrows="1" fold="1" page="1" pageScale="1" pageWidth="850" pageHeight="1100" math="0" shadow="0">
      <root>
        <mxCell id="0" />
        <mxCell id="1" parent="0" />
        <mxCell id="EHfXZcObb2dVpvzbA1oW-2" value="seller-api" style="shape=umlLifeline;perimeter=lifelinePerimeter;container=1;collapsible=0;recursiveResize=0;rounded=0;shadow=0;strokeWidth=1;" vertex="1" parent="1">
          <mxGeometry x="207" y="110" width="100" height="1600" as="geometry" />
        </mxCell>
        <mxCell id="EHfXZcObb2dVpvzbA1oW-3" value="/create-store" style="verticalAlign=bottom;startArrow=oval;endArrow=block;startSize=8;shadow=0;strokeWidth=1;" edge="1" parent="EHfXZcObb2dVpvzbA1oW-2" source="EHfXZcObb2dVpvzbA1oW-9">
          <mxGeometry x="0.1667" y="10" relative="1" as="geometry">
            <mxPoint x="-16" y="70" as="sourcePoint" />
            <mxPoint x="44" y="70" as="targetPoint" />
            <mxPoint as="offset" />
          </mxGeometry>
        </mxCell>
        <mxCell id="EHfXZcObb2dVpvzbA1oW-6" value="Opt&amp;nbsp; [店铺Logo]" style="shape=umlFrame;whiteSpace=wrap;html=1;fontStyle=1;width=121;height=30;" vertex="1" parent="1">
          <mxGeometry x="219" y="200" width="861" height="90" as="geometry" />
        </mxCell>
        <mxCell id="EHfXZcObb2dVpvzbA1oW-7" value="seller-service" style="shape=umlLifeline;perimeter=lifelinePerimeter;container=1;collapsible=0;recursiveResize=0;rounded=0;shadow=0;strokeWidth=1;" vertex="1" parent="1">
          <mxGeometry x="360" y="110" width="90" height="1600" as="geometry" />
        </mxCell>
        <mxCell id="EHfXZcObb2dVpvzbA1oW-70" value="" style="html=1;points=[];perimeter=orthogonalPerimeter;" vertex="1" parent="EHfXZcObb2dVpvzbA1oW-7">
          <mxGeometry x="40" y="392" width="10" height="118" as="geometry" />
        </mxCell>
        <mxCell id="EHfXZcObb2dVpvzbA1oW-9" value="" style="shape=umlLifeline;participant=umlActor;perimeter=lifelinePerimeter;whiteSpace=wrap;html=1;container=1;collapsible=0;recursiveResize=0;verticalAlign=top;spacingTop=36;outlineConnect=0;" vertex="1" parent="1">
          <mxGeometry x="130" y="120" width="20" height="1590" as="geometry" />
        </mxCell>
        <mxCell id="EHfXZcObb2dVpvzbA1oW-10" value="S3" style="shape=umlLifeline;participant=umlEntity;perimeter=lifelinePerimeter;whiteSpace=wrap;html=1;container=1;collapsible=0;recursiveResize=0;verticalAlign=top;spacingTop=36;outlineConnect=0;" vertex="1" parent="1">
          <mxGeometry x="1023" y="110" width="40" height="210" as="geometry" />
        </mxCell>
        <mxCell id="EHfXZcObb2dVpvzbA1oW-11" value="" style="html=1;points=[];perimeter=orthogonalPerimeter;" vertex="1" parent="EHfXZcObb2dVpvzbA1oW-10">
          <mxGeometry x="15" y="115" width="10" height="50" as="geometry" />
        </mxCell>
        <mxCell id="EHfXZcObb2dVpvzbA1oW-12" value="&lt;span style=&quot;font-size: 12px;&quot;&gt;confirm_temp_file() 确认图片资源&lt;/span&gt;" style="html=1;verticalAlign=bottom;endArrow=block;entryX=0.1;entryY=0.34;rounded=0;entryDx=0;entryDy=0;entryPerimeter=0;" edge="1" parent="EHfXZcObb2dVpvzbA1oW-10">
          <mxGeometry relative="1" as="geometry">
            <mxPoint x="-763" y="128" as="sourcePoint" />
            <mxPoint x="16" y="128" as="targetPoint" />
          </mxGeometry>
        </mxCell>
        <mxCell id="EHfXZcObb2dVpvzbA1oW-13" value="common-service" style="shape=umlLifeline;perimeter=lifelinePerimeter;container=1;collapsible=0;recursiveResize=0;rounded=0;shadow=0;strokeWidth=1;" vertex="1" parent="1">
          <mxGeometry x="500" y="110" width="120" height="530" as="geometry" />
        </mxCell>
        <mxCell id="EHfXZcObb2dVpvzbA1oW-14" value="" style="html=1;points=[];perimeter=orthogonalPerimeter;" vertex="1" parent="EHfXZcObb2dVpvzbA1oW-13">
          <mxGeometry x="55" y="209" width="10" height="161" as="geometry" />
        </mxCell>
        <mxCell id="EHfXZcObb2dVpvzbA1oW-16" value="&lt;span style=&quot;font-size: 12px;&quot;&gt;getAreaById() 获取省、市信息&lt;/span&gt;" style="html=1;verticalAlign=bottom;endArrow=block;entryX=0;entryY=0;rounded=0;" edge="1" parent="1" target="EHfXZcObb2dVpvzbA1oW-14">
          <mxGeometry relative="1" as="geometry">
            <mxPoint x="256.5" y="319" as="sourcePoint" />
          </mxGeometry>
        </mxCell>
        <mxCell id="EHfXZcObb2dVpvzbA1oW-17" value="return &amp;lt;&amp;lt;common_struct.Areas&amp;gt;&amp;gt;" style="html=1;verticalAlign=bottom;endArrow=open;dashed=1;endSize=8;exitX=0;exitY=0.95;rounded=0;entryX=0.49;entryY=0.228;entryDx=0;entryDy=0;entryPerimeter=0;" edge="1" parent="1" source="EHfXZcObb2dVpvzbA1oW-14" target="EHfXZcObb2dVpvzbA1oW-2">
          <mxGeometry relative="1" as="geometry">
            <mxPoint x="250" y="470" as="targetPoint" />
          </mxGeometry>
        </mxCell>
        <mxCell id="EHfXZcObb2dVpvzbA1oW-25" value="order-service" style="shape=umlLifeline;perimeter=lifelinePerimeter;container=1;collapsible=0;recursiveResize=0;rounded=0;shadow=0;strokeWidth=1;" vertex="1" parent="1">
          <mxGeometry x="670" y="110" width="90" height="1600" as="geometry" />
        </mxCell>
        <mxCell id="EHfXZcObb2dVpvzbA1oW-28" value="return 图片地址" style="html=1;verticalAlign=bottom;endArrow=open;dashed=1;endSize=8;exitX=0;exitY=0.95;rounded=0;" edge="1" parent="1" source="EHfXZcObb2dVpvzbA1oW-11">
          <mxGeometry relative="1" as="geometry">
            <mxPoint x="250" y="273" as="targetPoint" />
          </mxGeometry>
        </mxCell>
        <mxCell id="EHfXZcObb2dVpvzbA1oW-29" value="mongodb" style="shape=umlLifeline;perimeter=lifelinePerimeter;whiteSpace=wrap;html=1;container=1;collapsible=0;recursiveResize=0;outlineConnect=0;rounded=0;glass=0;sketch=0;" vertex="1" parent="1">
          <mxGeometry x="1131" y="110" width="224" height="1600" as="geometry" />
        </mxCell>
        <mxCell id="EHfXZcObb2dVpvzbA1oW-30" value="" style="html=1;points=[];perimeter=orthogonalPerimeter;rounded=0;shadow=1;glass=0;sketch=0;" vertex="1" parent="EHfXZcObb2dVpvzbA1oW-29">
          <mxGeometry x="79" y="220" width="10" height="30" as="geometry" />
        </mxCell>
        <mxCell id="EHfXZcObb2dVpvzbA1oW-31" value="" style="html=1;points=[];perimeter=orthogonalPerimeter;rounded=0;shadow=1;glass=0;sketch=0;" vertex="1" parent="EHfXZcObb2dVpvzbA1oW-29">
          <mxGeometry x="78" y="300" width="10" height="40" as="geometry" />
        </mxCell>
        <mxCell id="EHfXZcObb2dVpvzbA1oW-73" value="" style="html=1;points=[];perimeter=orthogonalPerimeter;" vertex="1" parent="EHfXZcObb2dVpvzbA1oW-29">
          <mxGeometry x="78" y="397" width="10" height="38" as="geometry" />
        </mxCell>
        <mxCell id="EHfXZcObb2dVpvzbA1oW-76" value="" style="html=1;points=[];perimeter=orthogonalPerimeter;" vertex="1" parent="EHfXZcObb2dVpvzbA1oW-29">
          <mxGeometry x="78" y="460" width="10" height="38" as="geometry" />
        </mxCell>
        <mxCell id="EHfXZcObb2dVpvzbA1oW-77" value="db.SellerAddress.find_one()" style="html=1;verticalAlign=bottom;endArrow=block;entryX=0;entryY=0;rounded=0;exitX=0;exitY=0.013;exitDx=0;exitDy=0;exitPerimeter=0;" edge="1" parent="EHfXZcObb2dVpvzbA1oW-29" target="EHfXZcObb2dVpvzbA1oW-76">
          <mxGeometry relative="1" as="geometry">
            <mxPoint x="-731" y="461.03999999999996" as="sourcePoint" />
          </mxGeometry>
        </mxCell>
        <mxCell id="EHfXZcObb2dVpvzbA1oW-78" value="return 卖家地址信息" style="html=1;verticalAlign=bottom;endArrow=open;dashed=1;endSize=8;exitX=0;exitY=0.95;rounded=0;" edge="1" parent="EHfXZcObb2dVpvzbA1oW-29" source="EHfXZcObb2dVpvzbA1oW-76">
          <mxGeometry relative="1" as="geometry">
            <mxPoint x="-726.5" y="496.0999999999999" as="targetPoint" />
          </mxGeometry>
        </mxCell>
        <mxCell id="EHfXZcObb2dVpvzbA1oW-36" value="&lt;b&gt;Loop [deep - 1 &amp;gt; 0]&lt;/b&gt;" style="shape=umlFrame;whiteSpace=wrap;html=1;rounded=0;shadow=1;glass=0;sketch=0;width=166;height=20;" vertex="1" parent="1">
          <mxGeometry x="520" y="382" width="740" height="80" as="geometry" />
        </mxCell>
        <mxCell id="EHfXZcObb2dVpvzbA1oW-37" value="db.Areas.find_one()" style="html=1;verticalAlign=bottom;endArrow=block;entryX=0;entryY=0;rounded=0;exitX=1.3;exitY=0.062;exitDx=0;exitDy=0;exitPerimeter=0;" edge="1" parent="1" source="EHfXZcObb2dVpvzbA1oW-14" target="EHfXZcObb2dVpvzbA1oW-30">
          <mxGeometry relative="1" as="geometry">
            <mxPoint x="862" y="330" as="sourcePoint" />
          </mxGeometry>
        </mxCell>
        <mxCell id="EHfXZcObb2dVpvzbA1oW-38" value="return 地区信息" style="html=1;verticalAlign=bottom;endArrow=open;dashed=1;endSize=8;exitX=0;exitY=0.95;rounded=0;" edge="1" parent="1" source="EHfXZcObb2dVpvzbA1oW-30" target="EHfXZcObb2dVpvzbA1oW-13">
          <mxGeometry x="-0.009" y="21" relative="1" as="geometry">
            <mxPoint x="862" y="406" as="targetPoint" />
            <mxPoint as="offset" />
          </mxGeometry>
        </mxCell>
        <mxCell id="EHfXZcObb2dVpvzbA1oW-39" value="&lt;b&gt;Alt&lt;/b&gt;" style="shape=umlFrame;whiteSpace=wrap;html=1;rounded=0;shadow=1;glass=0;sketch=0;width=80;height=30;" vertex="1" parent="1">
          <mxGeometry x="219" y="650" width="540" height="250" as="geometry" />
        </mxCell>
        <mxCell id="EHfXZcObb2dVpvzbA1oW-40" value="ids-service" style="shape=umlLifeline;perimeter=lifelinePerimeter;container=1;collapsible=0;recursiveResize=0;rounded=0;shadow=0;strokeWidth=1;" vertex="1" parent="1">
          <mxGeometry x="824" y="110" width="90" height="1600" as="geometry" />
        </mxCell>
        <mxCell id="EHfXZcObb2dVpvzbA1oW-80" value="" style="endArrow=none;dashed=1;html=1;rounded=0;" edge="1" parent="EHfXZcObb2dVpvzbA1oW-40">
          <mxGeometry width="50" height="50" relative="1" as="geometry">
            <mxPoint x="-64" y="678" as="sourcePoint" />
            <mxPoint x="-605" y="678.1" as="targetPoint" />
          </mxGeometry>
        </mxCell>
        <mxCell id="EHfXZcObb2dVpvzbA1oW-45" value="db.Areas.find_one()" style="html=1;verticalAlign=bottom;endArrow=block;entryX=0;entryY=0;rounded=0;" edge="1" parent="1" target="EHfXZcObb2dVpvzbA1oW-31">
          <mxGeometry relative="1" as="geometry">
            <mxPoint x="570" y="410" as="sourcePoint" />
          </mxGeometry>
        </mxCell>
        <mxCell id="EHfXZcObb2dVpvzbA1oW-46" value="return 地区信息" style="html=1;verticalAlign=bottom;endArrow=open;dashed=1;endSize=8;exitX=0;exitY=0.95;rounded=0;" edge="1" parent="1" source="EHfXZcObb2dVpvzbA1oW-31">
          <mxGeometry relative="1" as="geometry">
            <mxPoint x="560" y="448" as="targetPoint" />
          </mxGeometry>
        </mxCell>
        <mxCell id="EHfXZcObb2dVpvzbA1oW-71" value="get_seller_detail() 获取卖家信息" style="html=1;verticalAlign=bottom;endArrow=block;entryX=0;entryY=0;rounded=0;" edge="1" target="EHfXZcObb2dVpvzbA1oW-70" parent="1">
          <mxGeometry relative="1" as="geometry">
            <mxPoint x="256.5" y="502" as="sourcePoint" />
          </mxGeometry>
        </mxCell>
        <mxCell id="EHfXZcObb2dVpvzbA1oW-74" value="db.Seller.find_one()" style="html=1;verticalAlign=bottom;endArrow=block;entryX=0;entryY=0;rounded=0;exitX=0;exitY=0.013;exitDx=0;exitDy=0;exitPerimeter=0;" edge="1" target="EHfXZcObb2dVpvzbA1oW-73" parent="1">
          <mxGeometry relative="1" as="geometry">
            <mxPoint x="400" y="508.03999999999996" as="sourcePoint" />
          </mxGeometry>
        </mxCell>
        <mxCell id="EHfXZcObb2dVpvzbA1oW-75" value="return 卖家账号信息" style="html=1;verticalAlign=bottom;endArrow=open;dashed=1;endSize=8;exitX=0;exitY=0.95;rounded=0;" edge="1" source="EHfXZcObb2dVpvzbA1oW-73" parent="1" target="EHfXZcObb2dVpvzbA1oW-7">
          <mxGeometry relative="1" as="geometry">
            <mxPoint x="1139" y="578" as="targetPoint" />
          </mxGeometry>
        </mxCell>
        <mxCell id="EHfXZcObb2dVpvzbA1oW-72" value="return &amp;lt;&amp;lt;seller.Seller&amp;gt;&amp;gt;" style="html=1;verticalAlign=bottom;endArrow=open;dashed=1;endSize=8;exitX=0;exitY=0.95;rounded=0;" edge="1" source="EHfXZcObb2dVpvzbA1oW-70" parent="1" target="EHfXZcObb2dVpvzbA1oW-2">
          <mxGeometry relative="1" as="geometry">
            <mxPoint x="330" y="578" as="targetPoint" />
          </mxGeometry>
        </mxCell>
        <mxCell id="EHfXZcObb2dVpvzbA1oW-81" value="[regionId = 2]" style="text;html=1;strokeColor=none;fillColor=none;align=center;verticalAlign=middle;whiteSpace=wrap;rounded=0;" vertex="1" parent="1">
          <mxGeometry x="227" y="680" width="73" height="30" as="geometry" />
        </mxCell>
        <mxCell id="EHfXZcObb2dVpvzbA1oW-82" value="[else]" style="text;html=1;strokeColor=none;fillColor=none;align=center;verticalAlign=middle;whiteSpace=wrap;rounded=0;" vertex="1" parent="1">
          <mxGeometry x="219" y="788" width="43" height="33.25" as="geometry" />
        </mxCell>
        <mxCell id="EHfXZcObb2dVpvzbA1oW-86" value="" style="html=1;points=[];perimeter=orthogonalPerimeter;" vertex="1" parent="1">
          <mxGeometry x="710" y="720" width="10" height="40" as="geometry" />
        </mxCell>
        <mxCell id="EHfXZcObb2dVpvzbA1oW-87" value="get_parameter() 获取&amp;nbsp; CN 国家的店铺佣金率" style="html=1;verticalAlign=bottom;endArrow=block;entryX=0;entryY=0;rounded=0;" edge="1" target="EHfXZcObb2dVpvzbA1oW-86" parent="1">
          <mxGeometry relative="1" as="geometry">
            <mxPoint x="260" y="720" as="sourcePoint" />
          </mxGeometry>
        </mxCell>
        <mxCell id="EHfXZcObb2dVpvzbA1oW-88" value="return &amp;lt;&amp;lt;order.Parameter&amp;gt;&amp;gt;" style="html=1;verticalAlign=bottom;endArrow=open;dashed=1;endSize=8;exitX=0;exitY=0.95;rounded=0;entryX=0.073;entryY=0.44;entryDx=0;entryDy=0;entryPerimeter=0;" edge="1" source="EHfXZcObb2dVpvzbA1oW-86" parent="1" target="EHfXZcObb2dVpvzbA1oW-39">
          <mxGeometry relative="1" as="geometry">
            <mxPoint x="640" y="796" as="targetPoint" />
          </mxGeometry>
        </mxCell>
        <mxCell id="EHfXZcObb2dVpvzbA1oW-89" value="" style="html=1;points=[];perimeter=orthogonalPerimeter;" vertex="1" parent="1">
          <mxGeometry x="710" y="821.25" width="10" height="40" as="geometry" />
        </mxCell>
        <mxCell id="EHfXZcObb2dVpvzbA1oW-90" value="get_parameter() 获取&amp;nbsp; BD 国家的店铺佣金率" style="html=1;verticalAlign=bottom;endArrow=block;entryX=0;entryY=0;rounded=0;exitX=0.056;exitY=0.231;exitDx=0;exitDy=0;exitPerimeter=0;" edge="1" parent="1" target="EHfXZcObb2dVpvzbA1oW-89">
          <mxGeometry relative="1" as="geometry">
            <mxPoint x="260.4000000000001" y="821.3585" as="sourcePoint" />
          </mxGeometry>
        </mxCell>
        <mxCell id="EHfXZcObb2dVpvzbA1oW-91" value="return &amp;lt;&amp;lt;order.Parameter&amp;gt;&amp;gt;" style="html=1;verticalAlign=bottom;endArrow=open;dashed=1;endSize=8;exitX=0;exitY=0.95;rounded=0;entryX=0.044;entryY=0.356;entryDx=0;entryDy=0;entryPerimeter=0;" edge="1" parent="1" source="EHfXZcObb2dVpvzbA1oW-89">
          <mxGeometry relative="1" as="geometry">
            <mxPoint x="249.5999999999999" y="859.296" as="targetPoint" />
          </mxGeometry>
        </mxCell>
      </root>
    </mxGraphModel>
  </diagram>
</mxfile>
